<svg width="35" height="44" viewBox="0 0 35 44" fill="none" xmlns="http://www.w3.org/2000/svg">
<path d="M0.955078 16.1677C0.955078 14.9963 1.90465 14.0468 3.076 14.0468C4.24735 14.0468 5.19692 14.9963 5.19692 16.1677V27.8328C5.19692 29.0041 4.24735 29.9537 3.076 29.9537C1.90465 29.9537 0.955078 29.0041 0.955078 27.8328V16.1677Z" fill="url(#paint0_linear_702_1144)"/>
<path d="M8.3783 9.53981C8.3783 8.36846 9.32787 7.41889 10.4992 7.41889C11.6706 7.41889 12.6201 8.36846 12.6201 9.53981V34.4606C12.6201 35.632 11.6706 36.5816 10.4992 36.5816C9.32787 36.5816 8.3783 35.632 8.3783 34.4606V9.53981Z" fill="url(#paint1_linear_702_1144)"/>
<path d="M15.8015 2.91194C15.8015 1.74058 16.7511 0.791016 17.9224 0.791016C19.0938 0.791016 20.0434 1.74058 20.0434 2.91194V41.0885C20.0434 42.2599 19.0938 43.2094 17.9224 43.2094C16.7511 43.2094 15.8015 42.2599 15.8015 41.0885V2.91194Z" fill="url(#paint2_linear_702_1144)"/>
<path d="M23.2247 9.53981C23.2247 8.36846 24.1743 7.41889 25.3457 7.41889C26.517 7.41889 27.4666 8.36846 27.4666 9.53981V34.4606C27.4666 35.632 26.517 36.5816 25.3457 36.5816C24.1743 36.5816 23.2247 35.632 23.2247 34.4606V9.53981Z" fill="url(#paint3_linear_702_1144)"/>
<path d="M30.648 16.1677C30.648 14.9963 31.5975 14.0468 32.7689 14.0468C33.9402 14.0468 34.8898 14.9963 34.8898 16.1677V27.8328C34.8898 29.0041 33.9402 29.9537 32.7689 29.9537C31.5975 29.9537 30.648 29.0041 30.648 27.8328V16.1677Z" fill="url(#paint4_linear_702_1144)"/>
<defs>
<linearGradient id="paint0_linear_702_1144" x1="32.4659" y1="4.64724" x2="-2.25863" y2="32.6422" gradientUnits="userSpaceOnUse">
<stop stop-color="#5390E3"/>
<stop offset="1" stop-color="#1357B3"/>
</linearGradient>
<linearGradient id="paint1_linear_702_1144" x1="32.4659" y1="4.64724" x2="-2.25863" y2="32.6422" gradientUnits="userSpaceOnUse">
<stop stop-color="#5390E3"/>
<stop offset="1" stop-color="#1357B3"/>
</linearGradient>
<linearGradient id="paint2_linear_702_1144" x1="32.4659" y1="4.64724" x2="-2.25863" y2="32.6422" gradientUnits="userSpaceOnUse">
<stop stop-color="#5390E3"/>
<stop offset="1" stop-color="#1357B3"/>
</linearGradient>
<linearGradient id="paint3_linear_702_1144" x1="32.4659" y1="4.64724" x2="-2.25863" y2="32.6422" gradientUnits="userSpaceOnUse">
<stop stop-color="#5390E3"/>
<stop offset="1" stop-color="#1357B3"/>
</linearGradient>
<linearGradient id="paint4_linear_702_1144" x1="32.4659" y1="4.64724" x2="-2.25863" y2="32.6422" gradientUnits="userSpaceOnUse">
<stop stop-color="#5390E3"/>
<stop offset="1" stop-color="#1357B3"/>
</linearGradient>
</defs>
</svg>
